<svg width="162" height="53" viewBox="0 0 162 53" fill="none" xmlns="http://www.w3.org/2000/svg">
<path d="M15.2949 40.48C13.1989 40.48 11.3029 40.024 9.60694 39.112C7.92694 38.184 6.59094 36.864 5.59894 35.152C4.62294 33.424 4.13494 31.36 4.13494 28.96C4.13494 26.56 4.61494 24.504 5.57494 22.792C6.53494 21.064 7.83894 19.744 9.48694 18.832C11.1509 17.904 13.0309 17.44 15.1269 17.44C17.5109 17.44 19.4229 17.92 20.8629 18.88C22.3189 19.824 23.3749 21.064 24.0309 22.6C24.6869 24.12 25.0149 25.752 25.0149 27.496H7.35094V27.328H19.9269C19.9429 26.4 19.8949 25.384 19.7829 24.28C19.6869 23.16 19.4709 22.096 19.1349 21.088C18.8149 20.08 18.3349 19.248 17.6949 18.592C17.0549 17.936 16.1989 17.608 15.1269 17.608C13.9429 17.608 12.9669 17.936 12.1989 18.592C11.4309 19.248 10.8229 20.128 10.3749 21.232C9.92694 22.336 9.60694 23.56 9.41494 24.904C9.23894 26.232 9.15094 27.584 9.15094 28.96C9.15094 30.32 9.23894 31.672 9.41494 33.016C9.60694 34.36 9.93494 35.576 10.3989 36.664C10.8789 37.752 11.5349 38.624 12.3669 39.28C13.2149 39.936 14.2869 40.264 15.5829 40.264C18.0469 40.264 20.0709 39.576 21.6549 38.2C23.2389 36.808 24.3269 35.136 24.9189 33.184H25.1109C24.4869 35.248 23.3589 36.984 21.7269 38.392C20.0949 39.784 17.9509 40.48 15.2949 40.48ZM44.1606 40V39.832H46.7526L31.9206 18.088H29.6166V17.92H40.5366V18.088H37.1766L52.0326 39.832H53.8566V40H44.1606ZM29.1366 40V39.832H32.3526L49.2486 18.088H45.2166V17.92H53.1366V18.088H49.4886L32.5686 39.832H37.3446V40H29.1366ZM57.4359 52V51.832H60.3639V18.088H57.4359V17.92H64.6599V26.536C64.9479 23.64 65.7399 21.408 67.0359 19.84C68.3319 18.272 70.0439 17.488 72.1719 17.488C73.9159 17.488 75.5639 17.944 77.1159 18.856C78.6679 19.768 79.9239 21.08 80.8839 22.792C81.8439 24.504 82.3239 26.56 82.3239 28.96C82.3239 31.36 81.8439 33.424 80.8839 35.152C79.9239 36.864 78.6679 38.184 77.1159 39.112C75.5639 40.024 73.9159 40.48 72.1719 40.48C70.0439 40.48 68.3319 39.688 67.0359 38.104C65.7399 36.504 64.9479 34.264 64.6599 31.384V51.832H67.5639V52H57.4359ZM71.4279 40.048C72.7559 40.048 73.8519 39.576 74.7159 38.632C75.5799 37.672 76.2279 36.36 76.6599 34.696C77.0919 33.016 77.3079 31.104 77.3079 28.96C77.3079 26.816 77.0919 24.912 76.6599 23.248C76.2279 21.584 75.5799 20.28 74.7159 19.336C73.8519 18.392 72.7559 17.92 71.4279 17.92C70.1799 17.92 69.0439 18.336 68.0199 19.168C66.9959 19.984 66.1799 21.216 65.5719 22.864C64.9639 24.496 64.6599 26.528 64.6599 28.96C64.6599 31.392 64.9639 33.432 65.5719 35.08C66.1799 36.728 66.9959 37.968 68.0199 38.8C69.0439 39.632 70.1799 40.048 71.4279 40.048ZM113.915 40.48V33.736H114.083C114.131 34.92 114.547 36.008 115.331 37C116.115 37.992 117.115 38.784 118.331 39.376C119.563 39.968 120.867 40.264 122.243 40.264C123.203 40.264 124.131 40.12 125.027 39.832C125.923 39.544 126.659 39.072 127.235 38.416C127.811 37.76 128.099 36.872 128.099 35.752C128.099 34.728 127.771 33.928 127.115 33.352C126.459 32.776 125.611 32.304 124.571 31.936C123.547 31.568 122.451 31.216 121.283 30.88C120.131 30.528 119.035 30.096 117.995 29.584C116.971 29.056 116.131 28.352 115.475 27.472C114.819 26.576 114.491 25.384 114.491 23.896C114.491 22.872 114.731 21.872 115.211 20.896C115.707 19.92 116.451 19.112 117.443 18.472C118.435 17.816 119.691 17.488 121.211 17.488C122.363 17.488 123.419 17.68 124.379 18.064C125.339 18.448 126.163 18.944 126.851 19.552L128.963 17.44H129.131V24.16H128.963C128.947 23.136 128.603 22.128 127.931 21.136C127.275 20.128 126.371 19.296 125.219 18.64C124.067 17.984 122.747 17.656 121.259 17.656C120.347 17.656 119.523 17.8 118.787 18.088C118.051 18.36 117.467 18.768 117.035 19.312C116.603 19.856 116.387 20.512 116.387 21.28C116.387 22.24 116.731 23.008 117.419 23.584C118.107 24.144 118.995 24.624 120.083 25.024C121.171 25.424 122.323 25.816 123.539 26.2C124.755 26.584 125.907 27.056 126.995 27.616C128.083 28.16 128.971 28.872 129.659 29.752C130.363 30.632 130.715 31.784 130.715 33.208C130.715 34.632 130.355 35.888 129.635 36.976C128.915 38.064 127.931 38.92 126.683 39.544C125.451 40.168 124.067 40.48 122.531 40.48C121.315 40.48 120.171 40.28 119.099 39.88C118.043 39.48 117.115 38.936 116.315 38.248L114.083 40.48H113.915ZM141.245 18.088L149.693 35.464L147.461 41.056L136.445 18.088H134.285V17.92H144.989V18.088H141.245ZM160.061 17.92V18.088H156.893L144.101 49.504C143.669 50.48 143.229 51.248 142.781 51.808C142.333 52.368 141.653 52.648 140.741 52.648C140.341 52.648 139.933 52.56 139.517 52.384C139.101 52.208 138.749 51.928 138.461 51.544C138.173 51.176 138.029 50.688 138.029 50.08C138.029 49.552 138.141 49.088 138.365 48.688C138.605 48.288 138.925 47.976 139.325 47.752C139.725 47.528 140.181 47.416 140.693 47.416C141.157 47.416 141.597 47.536 142.013 47.776C142.445 48.016 142.805 48.344 143.093 48.76C143.381 49.176 143.533 49.656 143.549 50.2L156.653 18.088H152.597V17.92H160.061Z" fill="black"/>
<circle cx="102" cy="29" r="3" fill="black"/>
<path d="M110.48 28.9696C110.48 31.2256 109.952 33.1776 108.896 34.8256C107.84 36.4576 106.44 37.7216 104.696 38.6176C102.952 39.5136 101.04 39.9616 98.96 39.9616C96.88 39.9616 94.968 39.5136 93.224 38.6176C91.48 37.7216 90.08 36.4576 89.024 34.8256C87.968 33.1776 87.44 31.2256 87.44 28.9696C87.44 26.7136 87.968 24.7616 89.024 23.1136C90.08 21.4656 91.48 20.2016 93.224 19.3216C94.968 18.4256 96.88 17.9776 98.96 17.9776C101.04 17.9776 102.952 18.4256 104.696 19.3216C106.44 20.2016 107.84 21.4656 108.896 23.1136C109.952 24.7616 110.48 26.7136 110.48 28.9696ZM110.312 28.9696C110.312 27.6576 109.944 26.6096 109.208 25.8256C108.456 25.0256 107.496 24.4256 106.328 24.0256C105.16 23.6256 103.92 23.3616 102.608 23.2336C101.296 23.0896 100.08 23.0176 98.96 23.0176C97.824 23.0176 96.608 23.0896 95.312 23.2336C94 23.3616 92.76 23.6256 91.592 24.0256C90.424 24.4256 89.472 25.0256 88.736 25.8256C87.984 26.6096 87.608 27.6576 87.608 28.9696C87.608 30.2816 87.984 31.3376 88.736 32.1376C89.472 32.9216 90.424 33.5136 91.592 33.9136C92.76 34.3136 94 34.5856 95.312 34.7296C96.608 34.8736 97.824 34.9456 98.96 34.9456C100.08 34.9456 101.296 34.8736 102.608 34.7296C103.92 34.5856 105.16 34.3136 106.328 33.9136C107.496 33.5136 108.456 32.9216 109.208 32.1376C109.944 31.3376 110.312 30.2816 110.312 28.9696Z" fill="black"/>
</svg>
