<svg width="724" height="690" viewBox="0 0 724 690" fill="none" xmlns="http://www.w3.org/2000/svg">
<g clip-path="url(#clip0_21_195)">
<path d="M0.209159 344.587C0.209159 415.302 16.7737 476.49 49.9027 528.146C83.0317 579.803 126.954 619.674 181.666 647.76C236.378 675.847 296.363 689.889 361.617 689.889C426.87 689.889 486.855 675.847 541.567 647.76C596.28 619.674 640.201 579.803 673.33 528.146C706.459 476.49 723.024 415.302 723.024 344.587C723.024 273.872 706.459 212.936 673.33 161.78C640.201 110.123 596.28 70.502 541.567 42.918C486.855 14.8324 426.87 0.789673 361.617 0.789673C296.363 0.789673 236.378 14.8324 181.666 42.918C126.954 70.502 83.0317 110.123 49.9027 161.78C16.7737 212.936 0.209159 273.872 0.209159 344.587ZM4.72669 344.587C4.72669 303.963 16.2724 271.114 39.3616 246.037C62.9542 220.96 93.0716 202.152 129.713 189.615C166.859 177.077 206.011 168.802 247.171 164.789C288.33 160.276 326.481 158.019 361.617 158.019C397.256 158.019 435.404 160.276 476.062 164.789C517.222 168.802 556.125 177.077 592.767 189.615C629.911 202.152 660.029 220.96 683.119 246.037C706.711 271.114 718.506 303.963 718.506 344.587C718.506 385.711 706.711 418.812 683.119 443.889C660.029 468.464 629.911 487.271 592.767 500.311C556.125 512.849 517.222 521.375 476.062 525.889C435.404 529.902 397.256 531.908 361.617 531.908C326.481 531.908 288.33 529.902 247.171 525.889C206.011 521.375 166.859 512.849 129.713 500.311C93.0716 487.271 62.9542 468.464 39.3616 443.889C16.2724 418.812 4.72669 385.711 4.72669 344.587Z" fill="#FE7999" fill-opacity="0.2"/>
<path d="M238.794 439.576C193.313 439.576 156.442 402.737 156.442 357.294C156.442 311.851 193.313 275.012 238.794 275.012C284.276 275.012 321.146 311.851 321.146 357.294C321.146 402.737 284.276 439.576 238.794 439.576Z" fill="#FE7999" fill-opacity="0.2"/>
</g>
<defs>
<clipPath id="clip0_21_195">
<rect width="724" height="690" fill="white" transform="matrix(-1 0 0 1 724 0)"/>
</clipPath>
</defs>
</svg>
