<svg width="170" height="170" viewBox="0 0 170 170" fill="none" xmlns="http://www.w3.org/2000/svg">
<circle cx="85" cy="85" r="85" fill="#FE7999"/>
<path d="M105.417 58.75H64.5833C61.3617 58.75 58.75 61.3617 58.75 64.5833V105.417C58.75 108.638 61.3617 111.25 64.5833 111.25H105.417C108.638 111.25 111.25 108.638 111.25 105.417V64.5833C111.25 61.3617 108.638 58.75 105.417 58.75Z" stroke="#F7F7F7" stroke-width="1.33333" stroke-linecap="round" stroke-linejoin="round"/>
<path d="M76.25 82.0833C79.4717 82.0833 82.0833 79.4716 82.0833 76.25C82.0833 73.0283 79.4717 70.4166 76.25 70.4166C73.0283 70.4166 70.4167 73.0283 70.4167 76.25C70.4167 79.4716 73.0283 82.0833 76.25 82.0833Z" stroke="#F7F7F7" stroke-width="1.33333" stroke-linecap="round" stroke-linejoin="round"/>
<path d="M111.25 93.75L102.249 84.7492C101.155 83.6556 99.6718 83.0413 98.125 83.0413C96.5782 83.0413 95.0947 83.6556 94.0008 84.7492L67.5 111.25" stroke="#F7F7F7" stroke-width="1.33333" stroke-linecap="round" stroke-linejoin="round"/>
</svg>
