<svg width="62" height="36" viewBox="0 0 62 36" fill="none" xmlns="http://www.w3.org/2000/svg">
<path d="M36.64 17.9595C36.64 20.9675 35.936 23.5702 34.528 25.7675C33.12 27.9648 31.2533 29.6608 28.928 30.8555C26.6027 32.0502 24.0533 32.6475 21.28 32.6475C18.5067 32.6475 15.9573 32.0502 13.632 30.8555C11.3067 29.6608 9.44 27.9648 8.032 25.7675C6.624 23.5702 5.92 20.9675 5.92 17.9595C5.92 14.9515 6.624 12.3595 8.032 10.1835C9.44 7.98617 11.3067 6.30083 13.632 5.1275C15.9573 3.93283 18.5067 3.3355 21.28 3.3355C24.0533 3.3355 26.6027 3.93283 28.928 5.1275C31.2533 6.30083 33.12 7.98617 34.528 10.1835C35.936 12.3595 36.64 14.9515 36.64 17.9595ZM36.448 17.9595C36.448 16.2315 35.9573 14.8342 34.976 13.7675C33.9733 12.7008 32.6933 11.9008 31.136 11.3675C29.5573 10.8342 27.8933 10.4822 26.144 10.3115C24.3947 10.1195 22.7733 10.0235 21.28 10.0235C19.7653 10.0235 18.144 10.1195 16.416 10.3115C14.6667 10.4822 13.0133 10.8342 11.456 11.3675C9.87733 11.9008 8.59733 12.7008 7.616 13.7675C6.61333 14.8342 6.112 16.2315 6.112 17.9595C6.112 19.7088 6.61333 21.1168 7.616 22.1835C8.59733 23.2288 9.87733 24.0288 11.456 24.5835C13.0133 25.1168 14.6667 25.4795 16.416 25.6715C18.144 25.8422 19.7653 25.9275 21.28 25.9275C22.7733 25.9275 24.3947 25.8422 26.144 25.6715C27.8933 25.4795 29.5573 25.1168 31.136 24.5835C32.6933 24.0288 33.9733 23.2288 34.976 22.1835C35.9573 21.1168 36.448 19.7088 36.448 17.9595Z" fill="black"/>
<circle cx="26.5" cy="18.5" r="3.5" fill="#090909"/>
</svg>
