<svg width="670" height="640" viewBox="0 0 670 640" fill="none" xmlns="http://www.w3.org/2000/svg">
<g clip-path="url(#clip0_13_61)">
<path d="M669.806 319.617C669.806 385.208 654.477 441.961 623.819 489.875C593.161 537.788 552.515 574.77 501.884 600.821C451.252 626.872 395.741 639.897 335.355 639.897C274.968 639.897 219.457 626.872 168.826 600.821C118.194 574.77 77.5483 537.788 46.8903 489.875C16.2322 441.961 0.903198 385.208 0.903198 319.617C0.903198 254.026 16.2322 197.506 46.8903 150.057C77.5483 102.143 118.194 65.3931 168.826 39.808C219.457 13.7575 274.968 0.732422 335.355 0.732422C395.741 0.732422 451.252 13.7575 501.884 39.808C552.515 65.3931 593.161 102.143 623.819 150.057C654.477 197.506 669.806 254.026 669.806 319.617ZM665.626 319.617C665.626 281.937 654.941 251.468 633.574 228.208C611.741 204.948 583.87 187.504 549.961 175.875C515.586 164.246 479.354 156.57 441.264 152.848C403.175 148.661 367.87 146.568 335.355 146.568C302.373 146.568 267.071 148.661 229.445 152.848C191.356 156.57 155.354 164.246 121.445 175.875C87.0709 187.504 59.1999 204.948 37.8322 228.208C15.9999 251.468 5.08384 281.937 5.08384 319.617C5.08384 357.761 15.9999 388.464 37.8322 411.723C59.1999 434.517 87.0709 451.961 121.445 464.057C155.354 475.686 191.356 483.595 229.445 487.781C267.071 491.503 302.373 493.363 335.355 493.363C367.87 493.363 403.175 491.503 441.264 487.781C479.354 483.595 515.586 475.686 549.961 464.057C583.87 451.961 611.741 434.517 633.574 411.723C654.941 388.464 665.626 357.761 665.626 319.617Z" fill="#272727" fill-opacity="0.2"/>
<path d="M449.016 407.722C491.106 407.722 525.226 373.553 525.226 331.403C525.226 289.253 491.106 255.083 449.016 255.083C406.927 255.083 372.806 289.253 372.806 331.403C372.806 373.553 406.927 407.722 449.016 407.722Z" fill="#272727" fill-opacity="0.2"/>
</g>
<defs>
<clipPath id="clip0_13_61">
<rect width="670" height="640" fill="white"/>
</clipPath>
</defs>
</svg>
