<svg width="162" height="46" viewBox="0 0 162 46" fill="none" xmlns="http://www.w3.org/2000/svg">
<path d="M31.6856 36.36C30.1256 36.36 28.7156 36.018 27.4556 35.334C26.1956 34.638 25.1936 33.648 24.4496 32.364C23.7056 31.068 23.3336 29.52 23.3336 27.72C23.3336 25.92 23.6936 24.378 24.4136 23.094C25.1336 21.798 26.1116 20.808 27.3476 20.124C28.5956 19.428 30.0056 19.08 31.5776 19.08C33.3536 19.08 34.7816 19.44 35.8616 20.16C36.9536 20.868 37.7456 21.798 38.2376 22.95C38.7296 24.09 38.9756 25.314 38.9756 26.622H25.7456V26.46H35.1596C35.1716 25.764 35.1356 25.008 35.0516 24.192C34.9676 23.364 34.8056 22.578 34.5656 21.834C34.3256 21.078 33.9656 20.46 33.4856 19.98C33.0056 19.488 32.3696 19.242 31.5776 19.242C30.6896 19.242 29.9576 19.488 29.3816 19.98C28.8056 20.472 28.3496 21.126 28.0136 21.942C27.6776 22.758 27.4436 23.67 27.3116 24.678C27.1796 25.674 27.1136 26.688 27.1136 27.72C27.1136 28.74 27.1796 29.754 27.3116 30.762C27.4556 31.758 27.7016 32.664 28.0496 33.48C28.3976 34.284 28.8836 34.932 29.5076 35.424C30.1436 35.916 30.9476 36.162 31.9196 36.162C33.7556 36.162 35.2616 35.652 36.4376 34.632C37.6136 33.612 38.4236 32.376 38.8676 30.924H39.0476C38.5796 32.46 37.7336 33.75 36.5096 34.794C35.2976 35.838 33.6896 36.36 31.6856 36.36ZM53.3528 36V35.838H55.2968L44.2088 19.602H42.4448V19.44H50.6528V19.602H48.1508L59.2388 35.838H60.6428V36H53.3528ZM42.0848 36V35.838H44.4968L57.1508 19.602H54.1448V19.44H60.1028V19.602H57.3848L44.7128 35.838H48.2768V36H42.0848ZM63.3445 45V44.838H65.5585V19.602H63.3445V19.44H68.7805V25.83C69.0085 23.682 69.6085 22.026 70.5805 20.862C71.5525 19.698 72.8365 19.116 74.4325 19.116C75.7285 19.116 76.9525 19.458 78.1045 20.142C79.2685 20.826 80.2105 21.81 80.9305 23.094C81.6625 24.378 82.0285 25.92 82.0285 27.72C82.0285 29.52 81.6625 31.068 80.9305 32.364C80.2105 33.648 79.2685 34.638 78.1045 35.334C76.9525 36.018 75.7285 36.36 74.4325 36.36C72.8365 36.36 71.5525 35.772 70.5805 34.596C69.6085 33.408 69.0085 31.746 68.7805 29.61V44.838H70.9585V45H63.3445ZM73.8565 36C74.8525 36 75.6745 35.646 76.3225 34.938C76.9705 34.23 77.4565 33.252 77.7805 32.004C78.1045 30.756 78.2665 29.328 78.2665 27.72C78.2665 26.112 78.1045 24.69 77.7805 23.454C77.4565 22.206 76.9705 21.234 76.3225 20.538C75.6745 19.83 74.8525 19.476 73.8565 19.476C72.9325 19.476 72.0805 19.788 71.3005 20.412C70.5325 21.024 69.9205 21.942 69.4645 23.166C69.0085 24.39 68.7805 25.908 68.7805 27.72C68.7805 29.532 69.0085 31.056 69.4645 32.292C69.9205 33.516 70.5325 34.44 71.3005 35.064C72.0805 35.688 72.9325 36 73.8565 36ZM105.721 36.36V31.284H105.901C105.937 32.172 106.243 32.988 106.819 33.732C107.407 34.476 108.157 35.07 109.069 35.514C109.981 35.946 110.947 36.162 111.967 36.162C112.687 36.162 113.377 36.054 114.037 35.838C114.709 35.622 115.255 35.268 115.675 34.776C116.107 34.284 116.323 33.624 116.323 32.796C116.323 32.028 116.077 31.428 115.585 30.996C115.105 30.564 114.475 30.21 113.695 29.934C112.927 29.658 112.111 29.394 111.247 29.142C110.383 28.878 109.561 28.554 108.781 28.17C108.013 27.774 107.383 27.246 106.891 26.586C106.411 25.914 106.171 25.026 106.171 23.922C106.171 23.154 106.351 22.404 106.711 21.672C107.083 20.928 107.635 20.316 108.367 19.836C109.111 19.356 110.053 19.116 111.193 19.116C112.057 19.116 112.843 19.26 113.551 19.548C114.271 19.836 114.889 20.208 115.405 20.664L116.989 19.08H117.151V24.12H116.989C116.977 23.352 116.719 22.596 116.215 21.852C115.723 21.108 115.045 20.496 114.181 20.016C113.317 19.524 112.333 19.278 111.229 19.278C110.545 19.278 109.933 19.386 109.393 19.602C108.853 19.806 108.421 20.112 108.097 20.52C107.773 20.916 107.611 21.402 107.611 21.978C107.611 22.698 107.869 23.274 108.385 23.706C108.901 24.126 109.561 24.486 110.365 24.786C111.181 25.086 112.045 25.38 112.957 25.668C113.869 25.944 114.727 26.292 115.531 26.712C116.347 27.12 117.013 27.66 117.529 28.332C118.045 28.992 118.303 29.85 118.303 30.906C118.303 31.974 118.033 32.922 117.493 33.75C116.965 34.566 116.239 35.208 115.315 35.676C114.391 36.132 113.347 36.36 112.183 36.36C111.283 36.36 110.431 36.21 109.627 35.91C108.835 35.61 108.145 35.208 107.557 34.704L105.883 36.36H105.721ZM126.254 19.602L132.572 32.598L130.88 36.774L122.654 19.602H121.016V19.44H129.062V19.602H126.254ZM140.33 19.44V19.602H137.972L128.378 43.128C128.054 43.86 127.718 44.436 127.37 44.856C127.034 45.276 126.524 45.486 125.84 45.486C125.54 45.486 125.234 45.42 124.922 45.288C124.61 45.156 124.346 44.946 124.13 44.658C123.914 44.382 123.806 44.016 123.806 43.56C123.806 43.164 123.89 42.816 124.058 42.516C124.238 42.216 124.478 41.982 124.778 41.814C125.078 41.646 125.42 41.562 125.804 41.562C126.152 41.562 126.482 41.652 126.794 41.832C127.118 42.012 127.382 42.252 127.586 42.552C127.802 42.852 127.922 43.206 127.946 43.614L137.756 19.602H134.714V19.44H140.33Z" fill="black"/>
<circle cx="96" cy="28" r="2" fill="black"/>
<path d="M102.36 27.9948C102.36 29.6868 101.964 31.1508 101.172 32.3868C100.38 33.6108 99.33 34.5588 98.022 35.2308C96.714 35.9028 95.28 36.2388 93.72 36.2388C92.16 36.2388 90.726 35.9028 89.418 35.2308C88.11 34.5588 87.06 33.6108 86.268 32.3868C85.476 31.1508 85.08 29.6868 85.08 27.9948C85.08 26.3028 85.476 24.8388 86.268 23.6028C87.06 22.3668 88.11 21.4188 89.418 20.7588C90.726 20.0868 92.16 19.7508 93.72 19.7508C95.28 19.7508 96.714 20.0868 98.022 20.7588C99.33 21.4188 100.38 22.3668 101.172 23.6028C101.964 24.8388 102.36 26.3028 102.36 27.9948ZM102.198 27.9948C102.198 27.0108 101.922 26.2248 101.37 25.6368C100.806 25.0368 100.092 24.5868 99.228 24.2868C98.352 23.9748 97.428 23.7708 96.456 23.6748C95.472 23.5668 94.56 23.5128 93.72 23.5128C92.868 23.5128 91.956 23.5668 90.984 23.6748C90.012 23.7708 89.094 23.9748 88.23 24.2868C87.354 24.5868 86.64 25.0368 86.088 25.6368C85.524 26.2248 85.242 27.0108 85.242 27.9948C85.242 28.9788 85.524 29.7708 86.088 30.3708C86.64 30.9588 87.354 31.4028 88.23 31.7028C89.094 32.0028 90.012 32.2068 90.984 32.3148C91.956 32.4108 92.868 32.4588 93.72 32.4588C94.56 32.4588 95.472 32.4108 96.456 32.3148C97.428 32.2068 98.352 32.0028 99.228 31.7028C100.092 31.4028 100.806 30.9588 101.37 30.3708C101.922 29.7708 102.198 28.9788 102.198 27.9948Z" fill="black"/>
</svg>
